<?xml version="1.0" standalone="no"?>
<!DOCTYPE svg PUBLIC "-//W3C//DTD SVG 20010904//EN"
 "http://www.w3.org/TR/2001/REC-SVG-20010904/DTD/svg10.dtd">
<svg width="150" height="50" viewBox="0 0 553 451" fill="none" xmlns="http://www.w3.org/2000/svg" class="header__logo-img">
        <g transform="translate(0,451) scale(0.1,-0.1)" fill="#FF5F1F">
            <path d="M4175 3539 c-27 -11 -79 -29 -115 -41 -36 -11 -117 -40 -180 -65 -63-25 -122 -46 -130 -48 -8 -2 -40 -13 -70 -25 -30 -12 -106 -40 -169 -62 -63-21 -121 -44 -128 -50 -7 -6 -13 -8 -13 -5 0 3 -39 -10 -87 -29 -49 -19 -92-34 -97 -34 -6 0 -56 -19 -113 -42 -81 -32 -101 -44 -91 -53 13 -11 238 -104 268 -110 27 -6 70 -24 70 -30 0 -4 -28 -42 -62 -87 -35 -44 -81 -104 -103-133 -105 -138 -161 -209 -249 -320 -123 -154 -164 -206 -266 -340 -46 -60-106 -138 -134 -172 -28 -35 -75 -93 -103 -130 -29 -38 -95 -122 -145 -187-166 -214 -181 -233 -317 -413 -74 -98 -148 -193 -165 -211 l-31 -33 48 28c26 15 79 46 117 68 79 46 95 56 343 220 100 66 185 123 188 128 4 5 15 14 26 20 10 7 34 21 52 32 19 11 48 31 65 45 17 14 83 64 146 110 121 90 201 152 262 204 46 39 86 72 168 137 36 28 84 68 106 88 23 20 70 61 105 91 161 141 286 256 424 393 97 96 154 146 161 140 7 -4 65 -53 129 -108 64 -55 128 -108 141 -118 l24 -19 -2 588 c-2 381 -7 588 -13 590 -5 2 -32 -6 -60 -17z"/>
            <path d="M1303 3079 c-11 -4 -28 -18 -37 -30 -14 -21 -16 -131 -16 -1130 l0-1106 26 -27 c19 -19 37 -26 64 -26 35 0 42 6 111 93 41 50 86 108 99 127 13 19 29 40 36 45 6 6 35 42 65 80 77 102 109 143 159 206 25 31 54 69 65 84 11 16 25 33 30 39 6 6 48 61 95 121 46 61 111 144 144 186 34 41 75 95 91 118 17 24 37 51 45 60 8 9 64 79 124 156 59 77 121 156 137 175 94 116 109 137 109 156 0 18 -23 34 -127 87 -285 143 -709 360 -718 367 -5 4 -21 11 -34 15 -13 4-46 20 -72 36 -90 53 -330 171 -353 173 -12 2 -32 -1 -43 -5z"/>
        </g>
    </svg>
